<svg xmlns="http://www.w3.org/2000/svg" width="32" height="32" viewBox="0 0 32 32" fill="none">
  <path d="M24.8624 4.34025C24.5315 3.9241 24.1039 3.68784 23.6278 3.65831C22.9203 3.61267 22.1188 4.01807 21.2446 4.86109C20.0503 6.01555 20.2439 6.77534 20.6178 7.21027L20.6259 7.22101C21.9332 8.82382 23.4287 11.4898 23.1436 15.0981C22.6809 20.9322 18.3368 22.6128 16.1069 22.6853C12.7984 22.7927 10.851 21.4718 9.94989 19.9737C11.1845 20.3576 12.7769 20.5268 14.1514 20.3872C15.6228 20.2368 17.7128 19.622 18.9797 18.0165C20.8572 15.6351 21.1289 12.5208 19.7006 9.89236C18.2803 7.28008 15.5421 5.82493 12.5456 6.0934C9.72394 6.34577 7.38915 7.50828 5.79407 9.45474C4.11561 11.5005 3.40549 14.5317 3.73096 17.4715C4.30927 22.7122 8.53234 27.6548 15.5717 27.6548C15.6712 27.6548 15.7707 27.6548 15.8702 27.6522C19.2621 27.5824 22.3797 26.24 24.6472 23.8774C27.0681 21.3537 28.3538 17.842 28.2651 13.9893C28.1548 9.17284 26.0863 5.87862 24.8624 4.34561V4.34025ZM8.62379 15.3881C8.68835 14.4968 9.08645 13.5383 9.51682 12.8564C10.192 11.7932 11.2679 11.1327 12.5456 11.0012C14.3881 10.8106 15.0767 12.0321 15.2892 12.5664C15.69 13.5812 15.4533 14.725 14.8293 15.27C13.8663 16.1076 11.007 16.3197 8.6211 15.3881H8.62379Z" fill="#FF7A63"/>
</svg>
